<?xml version="1.0" encoding="UTF-8"?>
<!DOCTYPE svg PUBLIC "-//W3C//DTD SVG 1.0//EN" "http://www.w3.org/TR/2001/REC-SVG-20010904/DTD/svg10.dtd">
<svg xmlns="http://www.w3.org/2000/svg" xml:space="preserve" width="32px" height="32px" version="1.0" shape-rendering="geometricPrecision" text-rendering="geometricPrecision" image-rendering="optimizeQuality" fill-rule="evenodd" clip-rule="evenodd"
viewBox="0 0 32 32"
 xmlns:xlink="http://www.w3.org/1999/xlink"
 xmlns:xodm="http://www.corel.com/coreldraw/odm/2003">
 <g id="Layer_x0020_1">
  <metadata id="CorelCorpID_0Corel-Layer"/>
  <path fill="none" stroke="black" stroke-linecap="round" stroke-linejoin="round" stroke-miterlimit="22.9256" d="M2.162 7.588l6.026 -0.263m6.52 -0.287c3.703,-0.175 0.931,-0.13 4.329,-0.585 1.411,-0.188 8.919,-0.011 9.819,0.622"/>
  <path fill="none" stroke="black" stroke-linecap="round" stroke-linejoin="round" stroke-miterlimit="22.9256" d="M29.838 17.198l-3.223 -0.454m-5.257 -0.739l-11.187 -1.575c1.297,0.502 -0.465,0.174 -1.623,0.248 -1.309,0.083 -3.782,0.128 -5.233,0.128"/>
  <path fill="none" stroke="black" stroke-linecap="round" stroke-linejoin="round" stroke-miterlimit="22.9256" d="M2.247 24.886c2.073,-0.107 3.954,-0.228 5.747,-0.326m5.378 -0.195c2.408,-0.021 4.856,0.074 7.629,0.383 3.161,0.353 5.65,0.623 8.583,0.787"/>
  <path fill="none" stroke="black" stroke-linecap="round" stroke-linejoin="round" stroke-miterlimit="22.9256" d="M22.174 19.504c-1.404,-5.199 -1.517,-5.568 3.051,-6.137 1.402,-0.174 1.924,3.591 0.949,4.202 -0.936,0.588 -3.58,2.56 -4.773,1.493"/>
  <path fill="none" stroke="black" stroke-linecap="round" stroke-linejoin="round" stroke-miterlimit="22.9256" d="M9.492 9.671c-1.389,-2.1 -1.843,-2.878 0.002,-4.776 0.745,-0.765 3.566,-1.907 4.35,-0.902 0.707,0.905 1.311,4.207 0.347,5.095 -0.892,0.822 -3.052,1.848 -4.238,1.054"/>
  <path fill="none" stroke="black" stroke-linecap="round" stroke-linejoin="round" stroke-miterlimit="22.9256" d="M12.448 23.343c0.036,-1.352 -2.405,-2.235 -3.167,-1.163 -1.025,1.442 -2.31,2.861 0.01,4.182 0.586,0.334 3.746,0.994 4.053,-0.507 0.105,-0.51 0.174,-2.589 -0.624,-2.739"/>
 </g>
</svg>
