<svg xmlns="http://www.w3.org/2000/svg" xml:space="preserve" width="192px" height="192px">
  <defs>
    <linearGradient id="q" gradientUnits="userSpaceOnUse" x1="96" y1="0" x2="96" y2="192">
    <stop offset="0" stop-opacity="1" stop-color="#2CFC8B"/>
    <stop offset="1" stop-opacity="1" stop-color="#9E92FF"/>
    </linearGradient>
  </defs>
  <g>
    <rect fill="url(#q)" width="192" height="192" rx="30" ry="30"/>
    <path fill="white" fill-rule="nonzero" d="M47.63 124.851l3.499 -20.303 11.956 0c23.219,0 40.789,-3.427 52.708,-10.243 11.919,-6.853 17.897,-16.877 17.897,-30.109 0,-8.128 -3.207,-14.288 -9.623,-18.48 -6.379,-4.192 -15.82,-6.306 -28.286,-6.306 -15.163,0 -27.557,0.693 -37.179,2.114l3.535 -20.267c9.113,-1.421 20.777,-2.15 35.029,-2.15 19.502,0 34.264,3.682 44.325,11.045 10.024,7.399 15.054,18.262 15.054,32.623 0,20.376 -8.202,35.795 -24.568,46.329 -16.366,10.498 -40.497,15.747 -72.392,15.747l-11.955 0zm-12.175 48.042l26.682 -151.636 22.199 0 -26.682 151.636 -22.199 0zm82.525 0l-20.923 -67.288 22.964 0 22.417 67.288 -24.458 0z"/>
  </g>
</svg>
