<?xml version="1.0" encoding="UTF-8"?>
<!DOCTYPE svg PUBLIC "-//W3C//DTD SVG 1.0//EN" "http://www.w3.org/TR/2001/REC-SVG-20010904/DTD/svg10.dtd">
<svg xmlns="http://www.w3.org/2000/svg" xml:space="preserve" width="32px" height="32px" version="1.0" shape-rendering="geometricPrecision" text-rendering="geometricPrecision" image-rendering="optimizeQuality" fill-rule="evenodd" clip-rule="evenodd"
viewBox="0 0 32 31.999"
 xmlns:xlink="http://www.w3.org/1999/xlink"
 xmlns:xodm="http://www.corel.com/coreldraw/odm/2003">
 <g>
  <path fill="none" stroke="black" stroke-width="2" stroke-linecap="round" stroke-linejoin="round" stroke-miterlimit="22.9256" d="M17.021 3.019c-3.186,-2.432 -5.244,-2.504 -8.823,-1.088 -3.048,1.206 -6.224,3.293 -6.458,6.881 -0.118,1.811 -1.419,3.297 -0.269,6.559 0.543,1.538 0.807,3.034 1.738,4.457 1.923,2.939 3.543,3.709 6.892,4.023 8.729,0.82 14.483,-1.523 14.483,-11.809 0,-3.059 -0.736,-4.825 -2.032,-7.313 -0.455,-0.873 -4.254,-2.046 -5.209,-2.434"/>
  <path fill="none" stroke="black" stroke-width="2" stroke-linecap="round" stroke-linejoin="round" stroke-miterlimit="22.9256" d="M15.156 5.674c5.118,1.294 5.641,3.655 6.035,8.287"/>
  <path fill="none" stroke="black" stroke-width="2" stroke-linecap="round" stroke-linejoin="round" stroke-miterlimit="22.9256" d="M21.579 21.559c1.889,2.324 8.067,7.346 9.421,9.44"/>
 </g>
</svg>
