<?xml version="1.0" encoding="UTF-8"?>
<!DOCTYPE svg PUBLIC "-//W3C//DTD SVG 1.0//EN" "http://www.w3.org/TR/2001/REC-SVG-20010904/DTD/svg10.dtd">
<!-- Creator: CorelDRAW -->
<svg xmlns="http://www.w3.org/2000/svg" xml:space="preserve" width="60px" height="60px" version="1.0" style="shape-rendering:geometricPrecision; text-rendering:geometricPrecision; image-rendering:optimizeQuality; fill-rule:evenodd; clip-rule:evenodd"
viewBox="0 0 60 60"
 xmlns:xlink="http://www.w3.org/1999/xlink"
 xmlns:xodm="http://www.corel.com/coreldraw/odm/2003">
 <defs>
  <style type="text/css">
   <![CDATA[
    .str0 {stroke:white;stroke-width:4.1;stroke-linecap:round;stroke-linejoin:round;stroke-miterlimit:22.9256}
    .fil0 {fill:none}
    .fil1 {fill:white}
   ]]>
  </style>
 </defs>
 <g id="Layer_x0020_1">
  <metadata id="CorelCorpID_0Corel-Layer"/>
  <path class="fil0 str0" d="M22.62 47.627c-0.507,0.928 -1.789,3.542 -1.653,4.53"/>
  <path class="fil0 str0" d="M29.964 48.371c-0.014,0.374 1.18,7.526 1.265,9.277"/>
  <path class="fil0 str0" d="M51.526 18.414c-3.351,1.298 -2.126,0.516 -4.894,2.278"/>
  <path class="fil0 str0" d="M54.217 35.263c-0.006,-0.001 -6.497,-0.991 -6.502,-0.99"/>
  <path class="fil0 str0" d="M39.002 46.333c0.652,0.753 1.895,2.53 2.42,3.557"/>
  <path class="fil0 str0" d="M44.397 40.773c3.79,2.398 4.962,3.651 9.438,5.925"/>
  <path class="fil0 str0" d="M47.686 26.818c3.645,-0.542 5.328,-0.439 9.537,-1.066"/>
  <path class="fil0 str0" d="M42.134 15.828c2.044,-2.55 6.183,-7.928 7.472,-11.002"/>
  <path class="fil0 str0" d="M36.126 12.784c0.331,-0.668 3.017,-6.199 2.959,-6.466"/>
  <path class="fil0 str0" d="M28.956 11.63c-0.109,-4.081 -0.222,-4.91 -0.772,-8.899"/>
  <path class="fil0 str0" d="M19.866 14.316c-0.535,0.042 -1.75,-4.422 -3.036,-6.033"/>
  <path class="fil0 str0" d="M13.739 20.487c-0.219,-0.201 -5.44,-5.131 -6.572,-5.932 -0.727,-0.514 -2.043,-2.695 -2.805,-2.582"/>
  <path class="fil0 str0" d="M10.988 26.28c-1.678,-0.288 -6.61,-1.912 -7.252,-1.98"/>
  <path class="fil0 str0" d="M12.107 32.667c-5.955,0.115 -3.538,0.63 -9.247,1.71"/>
  <path class="fil0 str0" d="M7.058 42.023c1.977,-0.295 3.86,-2.023 5.997,-2.555"/>
  <path class="fil0 str0" d="M16.564 44.788c-0.499,0.573 -7.15,9.177 -8.061,9.633"/>
  <path class="fil1 str0" d="M28.254 16.642c0.837,-0.396 4.335,0.205 5.291,0.656 2.311,1.092 4.815,2.197 6.486,4.159 2.054,2.411 2.903,5.785 3.082,8.891 0.102,1.763 -0.849,5.381 -2.009,6.722 -0.636,0.734 -0.487,1.536 -2.127,3.268 -2.227,2.352 -3.593,1.78 -5.703,2.817 -1.219,0.6 -6.623,0.304 -7.933,-0.225 -0.789,-0.319 -1.199,-0.077 -2.121,-0.702 -1.902,-1.288 -4.677,-1.911 -5.077,-5.228 -0.638,-5.286 -1.771,-3.772 -1.012,-9.835 0.338,-2.703 2.64,-5.765 4.794,-7.305 0.806,-0.576 1.862,-1.939 3.287,-2.186 0.476,-0.082 1.096,-0.43 1.486,-0.641 0.548,-0.296 1.423,-0.328 1.556,-0.391z"/>
 </g>
</svg>
